<svg xmlns="http://www.w3.org/2000/svg" xmlns:xlink="http://www.w3.org/1999/xlink" aria-hidden="true" viewBox="0 -750 8575.1 1000"><defs><path id="a" d="m137 683 72 5q71 5 73 6 12 0 12-9 0-11-36-151-38-148-38-151 0-2 7 5 61 54 130 54 54 0 87-27t34-79q0-51-38-158T402 50q1-14 5-19t15-5q28 0 52 30t39 82q3 11 6 13t16 2q20 0 20-8 0-1-4-15-16-59-51-97-34-43-81-43h-5q-47 0-68 27t-21 57q0 16 36 118t37 153q0 59-44 59h-5q-83 0-144-98l-7-13-34-135Q132 28 127 16q-13-27-44-27-14 0-24 9T48 16q0 14 73 304l74 296q0 13-7 16t-39 5h-21q-6 6-6 8t2 19q5 19 13 19Z"/><path id="b" d="M56 347q0 13 14 20h637q15-8 15-20 0-11-14-19l-318-1H72q-16 5-16 20Zm0-194q0 15 16 20h636q14-10 14-20 0-13-15-20H70q-14 7-14 20Z"/><path id="c" d="M128 622q-7 7-11 9t-16 3-43 3H25v46h11q21-3 144-3 135 0 144 3h11v-46h-33q-40-1-51-3t-18-12l-1-122V378h285v244q-7 7-11 9t-16 3-43 3h-33v46h11q21-3 144-3 135 0 144 3h11v-46h-33q-40-1-51-3t-18-12V61q6-10 17-12t52-3h33V0h-11q-21 3-144 3-135 0-144-3h-11v46h33q42 1 51 3t19 12v271H232V197l1-136q6-10 17-12t52-3h33V0h-11q-21 3-144 3Q45 3 36 0H25v46h33q42 1 51 3t19 12v561Z"/><path id="d" d="M132 622q-7 7-11 9t-16 3-43 3H29v46h106q86 0 97-1t17-7q1-1 105-277l104-274 104 274q104 276 106 277 3 6 15 7t98 1h106v-46h-33q-40-1-51-3t-18-12V61q6-10 17-12t52-3h33V0h-11q-21 3-140 3-131 0-140-3h-11v46h33q42 1 51 3t19 12v552l-1 19Q454 14 450 7q-4-6-20-6t-20 6q-1 2-118 309L176 624v-18q-1-18-1-63t0-80 0-107l1-270q11-36 85-40h17V0h-9q-15 3-115 3Q52 3 37 0h-8v46h17q32 2 52 10t24 13 10 17v536Z"/><path id="e" d="M255 0q-15 3-115 3Q48 3 39 0h-7v46h15q72 3 92 42l53 157q52 154 103 308t53 155q3 8 18 8h10q20-1 24-7 2-2 108-319L617 67q7-13 19-16t51-5h30V0h-9q-9 3-127 3-123 0-144-3h-10v46h13q70 0 70 18 0 2-24 74l-24 71H229l-20-59q-20-59-20-65 0-13 20-26t50-13h5V0h-9Zm192 255L345 557 244 256q0-1 101-1h102Z"/><path id="f" d="M56 342q0 86 33 158t85 115 109 66 108 24h9q6 0 8-1 91 0 161-68l13-12 30 39q27 37 31 41h4q3 0 6 1h4q3 0 9-6V419l-6-6h-34q-6 6-7 17-9 82-48 142t-95 79q-19 7-50 7-104 0-174-70-79-79-79-246 0-121 38-191 21-40 52-67t65-39 56-16 44-5q89 0 143 69t55 151q0 7 6 13h28l6-6v-15q-5-103-76-180T403-21Q262-21 159 83T56 342Z"/><path id="g" d="M228 637q-34 0-36 4-1 2-1 8 0 24 11 33 2 1 17 1 41-2 136-2h63q29 0 45 1t20 0q16 0 16-10 0-2-2-14-5-17-10-20h-14q-4 0-9-1t-9 0q-39-1-50-3t-18-11q-3-4-32-123-7-26-15-58t-12-47l-4-15q0-2 145-2h145l1 3q0 3 31 123 28 115 28 123t-57 10q-23 0-30 2t-7 9q0 2 2 12 4 17 6 19t16 3q5 0 42-1t94-1q62 0 95 1t36 1q17 0 17-10 0-27-12-34h-14q-4 0-9-1t-9 0q-39-1-50-3t-18-11q-3-5-72-283T634 58q0-7 4-7 8-3 54-5h31q6-8 6-9t-3-18q-4-13-10-19h-15q-37 2-134 2H458q-17 0-21-1-17 0-17 9 0 5 3 14 5 19 10 21 4 1 15 1h6q27 0 60 3 6 1 8 1t6 5 6 9 6 18 7 28 11 43q7 28 11 45 33 132 33 133t-145 1H312l-33-135Q245 63 245 58q0-7 8-9t50-3h31q6-8 6-9t-3-18q-4-13-10-19h-15q-37 2-134 2H69Q52 2 48 1q-17 0-17 9 0 2 3 14 5 19 10 21 4 1 15 1h6q27 0 60 3 14 3 19 12 3 4 72 278t69 289q0 7-57 9Z"/><path id="h" d="M94 250q0 69 10 131t23 107 37 88 38 67 42 52 33 34 25 21h17q14 0 14-9 0-3-17-21t-41-53-49-86-42-138-17-193 17-192 41-139 49-86 42-53 17-21q0-9-15-9h-16l-28 24q-94 85-137 212T94 250Z"/><path id="i" d="M285 628q0 7-57 9-23 0-30 1t-7 9q0 2 2 14 6 20 10 21 2 1 11 1h5q41-2 136-2h63q29 0 45 1t20 0q17 0 17-8 0-5-3-14-1-2-1-6t-1-6-2-4-3-3-4-2-7-1-9-1-14 0q-40-1-51-3t-18-11l-81-318q1 0 184 144t188 148q14 14 14 23 0 15-25 17-16 0-16 11 0 2 3 14t5 15q3 5 17 5 4 0 35-1t80-1q23 0 48 1t30 1q20 0 20-10 0-22-8-30-3-5-19-5-75-5-136-51-16-10-70-52t-100-79l-47-37 9-22q9-22 28-67t35-85q75-177 80-183 2-2 5-4 14-10 51-11h21q6-8 6-9t-3-18q-4-13-10-19h-11q-40 3-95 3-122 0-137-3h-10q-6 6-6 9t2 18q4 13 6 16t11 3h3q50 0 50 25 0 4-27 70t-32 75l-58 138-68-53-68-53-23-93q-23-92-23-97 0-7 8-9t50-3h31q6-9 6-11 0-16-7-30-5-5-16-5l-37 1q-34 1-100 1H85Q52 2 49 1 31 1 31 11q0 2 3 14 4 16 8 18t23 3q27 0 60 3 14 3 19 12 3 4 72 278t69 289Z"/><path id="j" d="M78 35v25l16 43 43 18q28 0 50-25t23-88q0-35-9-68t-21-57-26-41-24-27-13-9q-4 0-13 9t-9 13q0 4 11 16t25 30 26 50 16 73V9l-1-1q-2-1-5-2t-6-3-9-2-12-1q-27 0-44 17Z"/><path id="k" d="M40 437q-19 0-19 8 0 5 16 56t34 101l17 49q5 18 13 26h558q32 0 38-1t7-9q0-6-17-114t-19-109q0-7-19-7h-12q-3 0-6 5l-2 3q0 6 6 45t6 61q0 35-13 53t-55 25q-5 1-58 2-46 0-58-1t-18-8q-1-1-71-279T298 60q0-12 88-14 32 0 41-1t9-9q0-5-3-14-4-18-9-21l-2-1h-7l-52 1q-47 1-135 1Q99 2 64 0H49q-6 6-6 9t2 18q4 13 10 19h39q80 0 95 9 1 1 2 1 5 3 10 20t40 157q17 68 28 111 70 275 70 281 0 5-29 5h-31q-67 0-88-6-45-10-70-41T67 467q-7-22-10-26t-14-4h-3Z"/><path id="l" d="m60 749 4 1h22l28-24q94-85 137-212t43-264q0-68-10-131T261 12t-37-88-38-67-41-51-32-33-23-19l-4-4H63q-3 0-5 3t-3 9q1 1 11 13Q221-64 221 250T66 725q-10 12-11 13 0 8 5 11Z"/></defs><g stroke="#000" stroke-width="0"><use xlink:href="#a" transform="scale(1 -1)"/><use xlink:href="#b" transform="matrix(1 0 0 -1 853.8 0)"/><g><g transform="matrix(1 0 0 -1 1909.6 0)"><use xlink:href="#c"/><use xlink:href="#d" transform="translate(750)"/><use xlink:href="#e" transform="translate(1667)"/><use xlink:href="#f" transform="translate(2417)"/></g><use xlink:href="#g" transform="matrix(.7 0 0 -.7 5081.6 150)"/></g><use xlink:href="#h" transform="matrix(1 0 0 -1 5759.5 0)"/><use xlink:href="#i" transform="matrix(1 0 0 -1 6148.5 0)"/><use xlink:href="#j" transform="matrix(1 0 0 -1 7037.5 0)"/><use xlink:href="#k" transform="matrix(1 0 0 -1 7482.1 0)"/><use xlink:href="#l" transform="matrix(1 0 0 -1 8186.1 0)"/></g></svg>