<svg xmlns="http://www.w3.org/2000/svg" viewBox="0 0 115.77 122.88"><path fill-rule="evenodd" d="M89.62 13.96v7.73h12.2v.02a13.92 13.92 0 0 1 13.93 13.92h.02v73.3h-.02a13.96 13.96 0 0 1-13.92 13.93v.02H40.1v-.02a13.94 13.94 0 0 1-13.93-13.92h-.02V92.51h-12.2v-.02A13.94 13.94 0 0 1 .02 78.57H0V13.95h.02A13.97 13.97 0 0 1 13.94.02V0h61.73v.02A13.92 13.92 0 0 1 89.6 13.94h.02v.02zm-10.58 7.73v-7.75h.02c0-.91-.39-1.75-1.01-2.37-.61-.61-1.46-1-2.37-1v.02H13.95v-.02c-.91 0-1.75.39-2.37 1.01-.61.61-1 1.46-1 2.37h.02v64.62h-.02c0 .91.39 1.75 1.01 2.37.61.61 1.46 1 2.37 1v-.02h12.2V35.64h.02A13.97 13.97 0 0 1 40.1 21.71v-.02h38.94zm26.14 87.23V35.63h.02c0-.91-.39-1.75-1.01-2.37-.61-.61-1.46-1-2.37-1v.02H40.09v-.02c-.91 0-1.75.39-2.37 1.01-.61.61-1 1.46-1 2.37h.02v73.3h-.02c0 .91.39 1.75 1.01 2.37.61.61 1.46 1 2.37 1v-.02h61.73v.02c.91 0 1.75-.39 2.37-1.01.61-.61 1-1.46 1-2.37h-.02v-.01z" clip-rule="evenodd"/></svg>